<svg width="1053" height="745" viewBox="0 0 1053 745" fill="none" xmlns="http://www.w3.org/2000/svg">
<circle cx="320" cy="425" r="146" fill="#CED200"/>
<path d="M127.584 353C125.376 353 123.456 352.184 121.824 350.552C120.192 348.92 119.376 347 119.376 344.792V256.088C119.376 253.88 120.192 251.96 121.824 250.328C123.456 248.696 125.376 247.88 127.584 247.88H131.184C133.68 247.88 135.984 248.552 138.096 249.896C140.208 251.24 141.744 253.016 142.704 255.224L167.904 309.656C167.904 309.752 167.952 309.8 168.048 309.8C168.144 309.8 168.192 309.752 168.192 309.656L193.392 255.224C194.352 253.016 195.888 251.24 198 249.896C200.112 248.552 202.416 247.88 204.912 247.88H209.088C211.296 247.88 213.216 248.696 214.848 250.328C216.48 251.96 217.296 253.88 217.296 256.088V344.792C217.296 347 216.48 348.92 214.848 350.552C213.216 352.184 211.296 353 209.088 353H205.92C203.712 353 201.792 352.184 200.16 350.552C198.528 348.92 197.712 347 197.712 344.792V282.152C197.712 282.056 197.664 282.008 197.568 282.008C197.472 282.008 197.424 282.056 197.424 282.152L180.144 319.16C179.088 321.368 177.456 323.192 175.248 324.632C173.136 325.976 170.88 326.648 168.48 326.648H167.616C165.216 326.648 162.912 325.976 160.704 324.632C158.592 323.192 157.008 321.368 155.952 319.16L138.672 282.152C138.672 282.056 138.624 282.008 138.528 282.008C138.432 282.008 138.384 282.056 138.384 282.152V344.792C138.384 347 137.568 348.92 135.936 350.552C134.304 352.184 132.384 353 130.176 353H127.584ZM251.12 353C248.912 353 246.992 352.184 245.36 350.552C243.728 348.92 242.912 347 242.912 344.792V286.328C242.912 284.12 243.728 282.2 245.36 280.568C246.992 278.936 248.912 278.12 251.12 278.12H254.864C257.072 278.12 258.992 278.936 260.624 280.568C262.256 282.2 263.072 284.12 263.072 286.328V344.792C263.072 347 262.256 348.92 260.624 350.552C258.992 352.184 257.072 353 254.864 353H251.12ZM251.12 262.28C248.912 262.28 246.992 261.464 245.36 259.832C243.728 258.2 242.912 256.28 242.912 254.072V253.208C242.912 251 243.728 249.08 245.36 247.448C246.992 245.816 248.912 245 251.12 245H254.864C257.072 245 258.992 245.816 260.624 247.448C262.256 249.08 263.072 251 263.072 253.208V254.072C263.072 256.28 262.256 258.2 260.624 259.832C258.992 261.464 257.072 262.28 254.864 262.28H251.12ZM295.457 353C293.249 353 291.329 352.184 289.697 350.552C288.065 348.92 287.249 347 287.249 344.792V286.328C287.249 284.12 288.065 282.2 289.697 280.568C291.329 278.936 293.249 278.12 295.457 278.12H297.329C299.633 278.12 301.553 278.936 303.089 280.568C304.721 282.104 305.585 284.024 305.681 286.328V287.336C305.681 287.432 305.729 287.48 305.825 287.48C305.921 287.48 306.017 287.432 306.113 287.336C312.641 280.232 320.273 276.68 329.009 276.68C337.745 276.68 344.081 279.176 348.017 284.168C352.049 289.064 354.065 297.272 354.065 308.792V344.792C354.065 347 353.249 348.92 351.617 350.552C349.985 352.184 348.065 353 345.857 353H343.409C341.201 353 339.281 352.184 337.649 350.552C336.113 348.92 335.345 347 335.345 344.792V310.232C335.345 303.032 334.385 298.136 332.465 295.544C330.641 292.856 327.329 291.512 322.529 291.512C318.593 291.512 314.945 293.192 311.585 296.552C308.225 299.912 306.545 303.512 306.545 307.352V344.792C306.545 347 305.729 348.92 304.097 350.552C302.465 352.184 300.545 353 298.337 353H295.457ZM403.698 290.072C398.802 290.072 395.01 291.464 392.322 294.248C389.73 296.936 388.098 301.304 387.426 307.352C387.426 308.12 387.81 308.504 388.578 308.504H416.802C417.57 308.504 417.954 308.12 417.954 307.352C417.57 295.832 412.818 290.072 403.698 290.072ZM407.298 354.44C394.722 354.44 385.026 351.176 378.21 344.648C371.49 338.024 368.13 328.328 368.13 315.56C368.13 302.888 371.154 293.24 377.202 286.616C383.25 279.992 391.986 276.68 403.41 276.68C424.722 276.68 435.666 288.776 436.242 312.968C436.338 315.272 435.522 317.192 433.794 318.728C432.066 320.264 430.05 321.032 427.746 321.032H388.434C387.57 321.032 387.234 321.464 387.426 322.328C388.098 328.76 390.21 333.464 393.762 336.44C397.41 339.32 402.69 340.76 409.602 340.76C413.922 340.76 418.722 340.04 424.002 338.6C425.73 338.12 427.314 338.408 428.754 339.464C430.29 340.52 431.058 341.96 431.058 343.784C431.058 345.992 430.386 347.96 429.042 349.688C427.794 351.32 426.114 352.328 424.002 352.712C418.626 353.864 413.058 354.44 407.298 354.44ZM459.988 353C457.78 353 455.86 352.184 454.228 350.552C452.596 348.92 451.78 347 451.78 344.792V286.328C451.78 284.12 452.596 282.2 454.228 280.568C455.86 278.936 457.78 278.12 459.988 278.12H462.868C465.076 278.12 466.996 278.936 468.628 280.568C470.26 282.2 471.076 284.12 471.076 286.328V292.376C471.076 292.472 471.124 292.52 471.22 292.52C471.412 292.52 471.508 292.472 471.508 292.376C474.292 288.536 477.94 285.416 482.452 283.016C486.964 280.52 491.908 278.984 497.284 278.408C499.3 278.216 501.028 278.888 502.468 280.424C503.908 281.864 504.628 283.592 504.628 285.608C504.628 287.624 503.908 289.352 502.468 290.792C501.028 292.232 499.3 293.048 497.284 293.24C480.292 294.584 471.796 303.224 471.796 319.16V344.792C471.796 347 470.98 348.92 469.348 350.552C467.716 352.184 465.796 353 463.588 353H459.988ZM552.591 317C538.863 317 531.999 321.224 531.999 329.672C531.999 332.744 532.863 335.24 534.591 337.16C536.415 339.08 538.719 340.04 541.503 340.04C546.975 340.04 551.391 338.36 554.751 335C558.111 331.544 559.791 326.84 559.791 320.888V318.296C559.791 317.432 559.359 317 558.495 317H552.591ZM536.319 354.44C529.791 354.44 524.367 352.328 520.047 348.104C515.823 343.784 513.711 338.216 513.711 331.4C513.711 323.048 516.879 316.568 523.215 311.96C529.647 307.352 539.439 305.048 552.591 305.048H558.495C559.359 305.048 559.791 304.616 559.791 303.752V302.6C559.791 298.184 558.735 295.112 556.623 293.384C554.511 291.56 550.767 290.648 545.391 290.648C539.823 290.648 533.007 291.656 524.943 293.672C523.215 294.152 521.631 293.864 520.191 292.808C518.751 291.656 518.031 290.168 518.031 288.344C518.031 286.136 518.703 284.168 520.047 282.44C521.391 280.616 523.119 279.512 525.231 279.128C532.527 277.496 539.391 276.68 545.823 276.68C558.111 276.68 566.703 278.888 571.599 283.304C576.495 287.72 578.943 295.448 578.943 306.488V344.792C578.943 347 578.127 348.92 576.495 350.552C574.959 352.184 573.087 353 570.879 353H569.295C566.991 353 565.023 352.232 563.391 350.696C561.759 349.064 560.895 347.096 560.799 344.792V342.776C560.799 342.68 560.751 342.632 560.655 342.632C560.463 342.632 560.367 342.68 560.367 342.776C554.511 350.552 546.495 354.44 536.319 354.44ZM610.558 353C608.35 353 606.43 352.184 604.798 350.552C603.166 348.92 602.35 347 602.35 344.792V253.208C602.35 251 603.166 249.08 604.798 247.448C606.43 245.816 608.35 245 610.558 245H614.302C616.51 245 618.43 245.816 620.062 247.448C621.694 249.08 622.51 251 622.51 253.208V344.792C622.51 347 621.694 348.92 620.062 350.552C618.43 352.184 616.51 353 614.302 353H610.558ZM691.038 354.44C675.87 354.44 663.822 349.784 654.894 340.472C646.062 331.064 641.646 317.72 641.646 300.44C641.646 283.352 645.918 270.104 654.462 260.696C663.102 251.192 675.15 246.44 690.606 246.44C697.71 246.44 703.662 246.872 708.462 247.736C710.766 248.12 712.686 249.272 714.222 251.192C715.758 253.112 716.526 255.272 716.526 257.672V258.824C716.526 260.84 715.662 262.424 713.934 263.576C712.302 264.728 710.526 265.064 708.606 264.584C703.902 263.336 698.622 262.712 692.766 262.712C683.262 262.712 675.774 265.976 670.302 272.504C664.926 279.032 662.238 288.344 662.238 300.44C662.238 312.44 665.022 321.752 670.59 328.376C676.254 334.904 683.79 338.168 693.198 338.168C699.534 338.168 704.958 337.592 709.47 336.44C711.39 335.96 713.166 336.296 714.798 337.448C716.526 338.6 717.39 340.184 717.39 342.2V343.208C717.39 345.608 716.622 347.768 715.086 349.688C713.646 351.512 711.726 352.616 709.326 353C703.854 353.96 697.758 354.44 691.038 354.44ZM780.609 296.696C777.825 292.664 773.601 290.648 767.937 290.648C762.273 290.648 758.001 292.664 755.121 296.696C752.337 300.632 750.945 306.92 750.945 315.56C750.945 324.2 752.337 330.536 755.121 334.568C758.001 338.504 762.273 340.472 767.937 340.472C773.601 340.472 777.825 338.504 780.609 334.568C783.489 330.536 784.929 324.2 784.929 315.56C784.929 306.92 783.489 300.632 780.609 296.696ZM794.721 344.36C788.385 351.08 779.457 354.44 767.937 354.44C756.417 354.44 747.441 351.08 741.009 344.36C734.673 337.544 731.505 327.944 731.505 315.56C731.505 303.176 734.673 293.624 741.009 286.904C747.441 280.088 756.417 276.68 767.937 276.68C779.457 276.68 788.385 280.088 794.721 286.904C801.153 293.624 804.369 303.176 804.369 315.56C804.369 327.944 801.153 337.544 794.721 344.36ZM831.761 353C829.553 353 827.633 352.184 826.001 350.552C824.369 348.92 823.553 347 823.553 344.792V286.328C823.553 284.12 824.369 282.2 826.001 280.568C827.633 278.936 829.553 278.12 831.761 278.12H835.505C837.713 278.12 839.633 278.936 841.265 280.568C842.897 282.2 843.713 284.12 843.713 286.328V344.792C843.713 347 842.897 348.92 841.265 350.552C839.633 352.184 837.713 353 835.505 353H831.761ZM831.761 262.28C829.553 262.28 827.633 261.464 826.001 259.832C824.369 258.2 823.553 256.28 823.553 254.072V253.208C823.553 251 824.369 249.08 826.001 247.448C827.633 245.816 829.553 245 831.761 245H835.505C837.713 245 839.633 245.816 841.265 247.448C842.897 249.08 843.713 251 843.713 253.208V254.072C843.713 256.28 842.897 258.2 841.265 259.832C839.633 261.464 837.713 262.28 835.505 262.28H831.761ZM876.097 353C873.889 353 871.969 352.184 870.337 350.552C868.705 348.92 867.889 347 867.889 344.792V286.328C867.889 284.12 868.705 282.2 870.337 280.568C871.969 278.936 873.889 278.12 876.097 278.12H877.969C880.273 278.12 882.193 278.936 883.729 280.568C885.361 282.104 886.225 284.024 886.321 286.328V287.336C886.321 287.432 886.369 287.48 886.465 287.48C886.561 287.48 886.657 287.432 886.753 287.336C893.281 280.232 900.913 276.68 909.649 276.68C918.385 276.68 924.721 279.176 928.657 284.168C932.689 289.064 934.705 297.272 934.705 308.792V344.792C934.705 347 933.889 348.92 932.257 350.552C930.625 352.184 928.705 353 926.497 353H924.049C921.841 353 919.921 352.184 918.289 350.552C916.753 348.92 915.985 347 915.985 344.792V310.232C915.985 303.032 915.025 298.136 913.105 295.544C911.281 292.856 907.969 291.512 903.169 291.512C899.233 291.512 895.585 293.192 892.225 296.552C888.865 299.912 887.185 303.512 887.185 307.352V344.792C887.185 347 886.369 348.92 884.737 350.552C883.105 352.184 881.185 353 878.977 353H876.097Z" fill="#5951AE"/>
<path d="M453.921 529.974C453.699 527.415 453.678 524.469 453.859 521.138C454.156 517.796 454.564 514.383 455.084 510.9C455.593 507.294 456.113 503.81 456.643 500.449C457.173 497.087 457.618 494.101 457.979 491.49C458.403 488.261 458.133 485.828 457.169 484.192C456.205 482.557 454.733 481.825 452.751 481.997C451.819 482.078 450.028 483.093 447.379 485.042C444.847 486.981 442.134 490.225 439.241 494.775C436.454 499.192 433.799 505.133 431.276 512.598C428.86 519.93 427.253 529.157 426.457 540.279C424.349 541.69 422.32 542.665 420.37 543.202C419.342 543.537 418.426 543.801 417.62 543.994C415.3 544.318 413.748 544.023 412.964 543.108C412.191 542.316 412.117 540.112 412.742 536.496C413.06 534.749 413.638 531.936 414.476 528.056C415.43 524.166 416.299 519.977 417.084 515.487C417.858 510.876 418.462 506.341 418.897 501.883C419.438 497.292 419.566 493.351 419.28 490.06C419.079 487.744 418.534 486.195 417.644 485.412C416.871 484.62 415.785 484.284 414.386 484.406C413.337 484.497 411.642 485.258 409.3 486.689C406.958 488.12 404.426 490.735 401.702 494.533C398.979 498.331 396.377 503.53 393.897 510.131C391.523 516.601 389.721 524.924 388.49 535.101L388.458 534.735C388.31 535.73 388.162 536.726 388.013 537.721C387.854 538.595 387.759 539.524 387.727 540.509C387.695 541.494 387.599 542.424 387.44 543.297L379.048 548.078C378.487 548.373 377.745 548.621 376.823 548.824C376.018 549.017 375.186 548.905 374.328 548.488C373.597 548.183 372.998 547.375 372.532 546.065C372.066 544.754 372.008 542.733 372.358 540.001L379.23 491.325C379.443 489.71 379.602 488.162 379.708 486.679C379.825 485.318 379.83 484.028 379.724 482.809C379.724 481.458 379.571 480.366 379.264 479.533C381.16 478.386 382.845 477.503 384.318 476.884C385.791 476.265 386.983 475.793 387.894 475.468C389.028 475.001 390.003 474.732 390.818 474.662C394.548 474.338 396.063 477.584 395.362 484.399C395.066 486.389 394.615 489.315 394.01 493.174C395.971 490.057 398.064 487.112 400.289 484.34C402.621 481.435 404.978 478.836 407.362 476.541C409.747 474.247 412.168 472.379 414.626 470.937C417.201 469.486 419.77 468.649 422.334 468.426C424.316 468.254 426 468.722 427.388 469.83C428.893 470.927 430.084 472.482 430.963 474.493C431.949 476.372 432.621 478.709 432.981 481.502C433.33 484.174 433.457 486.987 433.361 489.943C435.004 487.221 436.821 484.485 438.814 481.733C440.912 478.849 443.095 476.265 445.362 473.98C447.747 471.685 450.221 469.751 452.785 468.178C455.349 466.604 457.972 465.701 460.652 465.469C463.799 465.196 466.273 465.963 468.074 467.772C469.991 469.57 471.374 471.968 472.221 474.965C473.185 477.951 473.645 481.227 473.602 484.792C473.676 488.347 473.506 491.801 473.092 495.152L469.291 520.351C468.538 526.557 470.026 529.498 473.756 529.174C476.669 528.921 479.747 527.18 482.99 523.951C486.232 520.723 489.311 516.955 492.225 512.65C495.256 508.334 498.043 503.917 500.586 499.398C503.13 494.879 505.281 491.253 507.04 488.522C507.665 487.608 508.322 487.059 509.011 486.877C509.816 486.684 510.473 486.811 510.982 487.258C511.596 487.574 511.946 488.219 512.03 489.194C512.232 490.159 512.046 491.403 511.474 492.926C509.513 497.395 507.07 502.396 504.145 507.931C501.21 513.344 497.898 518.482 494.21 523.346C490.639 528.2 486.713 532.348 482.432 535.789C478.151 539.231 473.563 541.164 468.668 541.589C467.037 541.731 465.389 541.69 463.726 541.466C462.179 541.231 460.664 540.687 459.181 539.834C457.814 538.97 456.654 537.781 455.7 536.267C454.737 534.632 454.143 532.534 453.921 529.974Z" fill="#5951AE"/>
<path d="M588.204 490.135C586.784 492.714 584.951 495.944 582.704 499.823C580.447 503.58 578.078 507.409 575.599 511.308C573.225 515.076 570.83 518.599 568.414 521.879C566.104 525.027 564.127 527.286 562.485 528.657C561.383 529.489 560.095 530.215 558.623 530.834C557.15 531.453 555.603 531.895 553.982 532.158C552.477 532.412 551.01 532.416 549.579 532.172C548.16 532.049 546.894 531.668 545.781 531.028C544.658 530.266 543.678 529.123 542.842 527.599C542.142 526.308 541.406 524.592 540.633 522.448C539.976 520.295 539.564 517.567 539.395 514.266C537.021 519.385 534.26 523.431 531.113 526.406C527.955 529.259 524.914 531.427 521.99 532.909C518.609 534.553 515.182 535.649 511.707 536.196C510.075 536.337 508.274 535.88 506.303 534.823C504.343 533.888 502.616 532.257 501.123 529.93C499.619 527.482 498.522 524.323 497.834 520.452C497.135 516.46 497.189 511.666 497.995 506.07C498.981 498.493 500.958 491.506 503.926 485.108C507.01 478.7 510.464 473.18 514.29 468.55C518.105 463.798 521.957 460.148 525.845 457.6C529.734 455.052 533.029 453.783 535.731 453.794C538.931 454.131 541.58 454.883 543.677 456.052C545.415 457.129 546.622 458.867 547.3 461.264C548.084 463.529 547.421 466.718 545.312 470.831C546.912 470.324 548.231 469.964 549.27 469.751C550.425 469.528 551.293 469.391 551.876 469.341C552.575 469.28 553.047 469.3 553.291 469.402C553.428 469.636 553.534 470.179 553.608 471.032C553.672 471.764 553.619 473.181 553.449 475.283C553.279 477.385 552.998 480.234 552.605 483.83C552.213 487.425 551.677 492.077 550.998 497.785C550.86 498.903 550.717 499.959 550.569 500.954C550.526 501.818 550.431 502.747 550.282 503.742C550.24 504.606 550.155 505.657 550.028 506.896C549.9 508.135 549.741 509.684 549.55 511.543C549.529 512.65 549.577 513.874 549.693 515.214C549.915 516.423 550.249 517.561 550.694 518.628C551.139 519.694 551.742 520.563 552.505 521.234C553.374 521.772 554.508 521.981 555.906 521.859C557.072 521.758 558.523 520.895 560.261 519.271C561.988 517.525 563.8 515.402 565.697 512.904C567.583 510.284 569.512 507.477 571.483 504.481C573.56 501.353 575.473 498.363 577.222 495.509C578.97 492.656 580.512 490.127 581.847 487.924C583.299 485.71 584.333 484.085 584.947 483.049C585.784 481.871 586.664 481.181 587.586 480.978C588.497 480.653 589.217 480.836 589.747 481.527C590.277 482.218 590.43 483.31 590.207 484.803C590.101 486.286 589.434 488.063 588.204 490.135ZM537.68 502.626C538.051 500.137 538.501 497.212 539.032 493.85C539.562 490.488 539.986 487.259 540.304 484.161C540.623 481.063 540.814 478.529 540.877 476.558C541.047 474.456 540.904 473.486 540.449 473.648C539.877 473.821 539.251 474.059 538.573 474.364C538.012 474.658 537.27 474.907 536.348 475.109C535.426 475.312 534.51 475.576 533.599 475.901C534.362 473.869 534.749 472.239 534.759 471.01C534.876 469.649 534.845 468.608 534.664 467.887C534.474 467.044 534.183 466.394 533.791 465.937C532.413 464.951 530.22 466.062 527.211 469.271C524.307 472.347 521.091 477.907 517.562 485.951C516.088 489.271 514.986 492.806 514.254 496.553C513.512 500.179 513.046 503.597 512.855 506.807C512.78 510.006 512.965 512.815 513.41 515.232C513.844 517.528 514.442 519.011 515.205 519.682C516.603 520.911 518.118 521.455 519.75 521.313C521.371 521.05 522.961 520.421 524.518 519.426C526.182 518.299 527.766 516.933 529.271 515.329C530.892 513.715 532.275 512.06 533.419 510.364C534.68 508.658 535.661 507.099 536.36 505.687C537.176 504.266 537.616 503.245 537.68 502.626Z" fill="#5951AE"/>
<path d="M572.927 527.198C572.227 528.61 571.427 529.539 570.526 529.985C569.52 530.564 568.651 530.701 567.92 530.396C567.083 530.223 566.506 529.659 566.188 528.704C565.87 527.749 565.997 526.51 566.57 524.987C566.856 524.225 567.529 522.509 568.589 519.838C569.532 517.177 570.724 514.003 572.166 510.317C573.48 506.518 574.948 502.461 576.57 498.145C578.181 493.707 579.696 489.522 581.117 485.592C582.654 481.652 584.053 478.153 585.314 475.096C586.564 471.918 587.481 469.627 588.064 468.226C586.676 467.118 585.728 466.341 585.22 465.894C584.7 465.325 584.245 464.136 583.853 462.328C583.483 460.764 583.652 458.661 584.363 456.021C585.073 453.38 586.085 450.836 587.399 448.389C588.703 445.82 590.213 443.601 591.929 441.732C593.646 439.864 595.379 438.854 597.127 438.702C600.39 438.419 602.758 439.319 604.23 441.402C605.819 443.474 606.831 445.658 607.265 447.954C607.636 449.518 607.694 451.54 607.439 454.018C607.185 456.496 606.501 458.766 605.388 460.828C605.759 461.041 606.252 461.305 606.866 461.62C607.47 461.814 608.413 461.854 609.695 461.743C611.56 461.581 612.831 461.348 613.509 461.044C614.304 460.729 615.517 460.501 617.149 460.359C619.13 460.187 620.809 460.594 622.187 461.58C623.553 462.444 624.713 463.633 625.667 465.146C626.61 466.538 627.335 468.133 627.843 469.931C628.458 471.597 628.887 473.157 629.13 474.609C629.744 477.626 629.262 480.861 627.683 484.314C626.103 487.767 624.143 491.56 621.801 495.693C620.381 498.272 618.987 501.156 617.62 504.345C616.253 507.534 615.791 510.337 616.236 512.755C616.607 514.319 617.126 515.563 617.793 516.488C618.461 517.413 620.135 517.758 622.815 517.526C624.796 517.354 626.889 516.435 629.093 514.77C631.403 512.973 633.681 510.811 635.928 508.282C638.28 505.622 640.559 502.784 642.763 499.768C644.956 496.63 646.986 493.63 648.851 490.766C650.705 487.78 652.237 485.13 653.445 482.814C654.77 480.489 655.739 478.808 656.354 477.773C656.852 476.747 657.551 476.011 658.452 475.564C659.353 475.117 660.169 475.047 660.9 475.352C661.631 475.657 662.102 476.353 662.314 477.439C662.642 478.516 662.361 480.014 661.471 481.934C660.877 483.213 659.823 485.27 658.307 488.103C656.909 490.926 655.128 494.09 652.966 497.593C650.921 501.086 648.595 504.727 645.988 508.514C643.37 512.18 640.557 515.617 637.548 518.826C634.644 521.903 631.64 524.497 628.535 526.608C625.547 528.71 622.596 529.887 619.683 530.14C616.652 530.403 614.094 530.011 612.007 528.964C609.919 527.917 608.161 526.596 606.731 525.001C605.407 523.274 604.363 521.399 603.601 519.378C602.944 517.224 602.595 515.228 602.552 513.39C602.542 511.917 602.759 510.363 603.205 508.728C603.756 506.961 604.365 505.188 605.033 503.411C605.807 501.502 606.586 499.654 607.37 497.866C608.26 495.947 609.039 494.099 609.707 492.321C611.381 488.615 612.696 485.492 613.649 482.953C614.709 480.282 615.165 478.093 615.017 476.387C614.922 475.29 614.604 474.335 614.064 473.522C613.524 472.709 612.729 472.348 611.68 472.439C610.981 472.5 610.462 472.607 610.123 472.759C609.89 472.779 609.598 472.804 609.249 472.835C609.015 472.855 608.613 472.951 608.041 473.124C607.574 473.164 606.817 473.23 605.768 473.321C604.253 473.452 602.95 473.32 601.858 472.923C600.767 472.527 599.745 472.247 598.791 472.084C598.399 472.978 597.509 474.897 596.12 477.843C594.732 480.788 593.095 484.246 591.208 488.216C589.438 492.177 587.509 496.336 585.422 500.692C583.45 505.039 581.575 509.132 579.794 512.97C578.003 516.687 576.519 519.886 575.343 522.567C574.039 525.136 573.234 526.68 572.927 527.198Z" fill="#5951AE"/>
<path d="M738.901 477.055C736.622 481.92 733.952 487.002 730.889 492.303C727.932 497.472 724.711 502.296 721.224 506.774C717.727 511.13 714.056 514.826 710.209 517.862C706.363 520.897 702.4 522.592 698.321 522.946C694.242 523.3 691.143 522.095 689.024 519.332C687.033 516.68 685.942 513.582 685.751 510.037C685.614 508.452 685.609 507.041 685.736 505.801C685.98 504.552 686.234 503.425 686.499 502.419C686.764 501.414 687.029 500.408 687.294 499.403C687.665 498.265 687.967 497.011 688.201 495.64C688.529 494.015 688.408 492.613 687.836 491.435C687.37 490.124 686.803 489.007 686.136 488.082C685.193 489.392 684.064 490.596 682.75 491.692C681.542 492.657 679.947 493.225 677.966 493.397C676.568 493.518 675.227 492.959 673.945 491.719C672.653 490.358 671.917 488.641 671.737 486.569C671.589 484.863 671.817 483.43 672.421 482.273C673.142 481.105 673.942 480.176 674.821 479.485C675.817 478.785 676.829 478.267 677.857 477.933C678.885 477.598 679.748 477.4 680.447 477.339C680.797 477.309 681.502 477.309 682.561 477.34C683.737 477.361 684.977 477.437 686.28 477.57C690.169 473.671 692.866 470.244 694.371 467.289C695.982 464.201 695.929 461.566 694.213 459.381C693.143 457.878 691.909 457.186 690.51 457.308C689.101 457.307 687.676 457.799 686.235 458.784C684.783 459.647 683.353 460.754 681.943 462.104C680.651 463.444 679.469 464.714 678.399 465.912C676.279 468.552 673.911 471.705 671.293 475.371C668.782 478.904 666.689 481.849 665.015 484.205C664.516 487.933 664.034 491.843 663.567 495.936C663.174 499.532 662.708 503.625 662.167 508.216C661.732 512.674 661.254 517.321 660.735 522.156C660.067 522.582 659.331 522.892 658.525 523.084C657.847 523.389 657.222 523.627 656.65 523.8C655.961 523.982 655.267 524.104 654.568 524.165C653.636 524.246 652.756 524.26 651.93 524.209C651.114 524.28 650.446 524.031 649.927 523.462C649.302 523.025 648.937 522.197 648.831 520.978C648.609 519.77 648.752 518.038 649.261 515.783C649.918 512.533 650.719 508.227 651.662 502.864C652.595 497.38 653.544 491.402 654.509 484.933C655.474 478.463 656.418 471.749 657.341 464.792C658.37 457.703 659.313 450.989 660.173 444.651C661.021 438.192 661.695 432.423 662.193 427.344C662.798 422.134 663.206 418.046 663.418 415.08C663.493 411.881 663.578 408.803 663.674 405.847C663.695 403.389 663.606 401.002 663.405 398.686C663.31 396.239 663.034 394.42 662.579 393.232C663.109 392.572 663.877 391.952 664.884 391.374C665.89 390.795 667.024 390.328 668.285 389.973C669.535 389.496 671.024 389.06 672.751 388.665C674.711 388.249 676.337 388.046 677.63 388.057C679.039 388.058 680.083 388.581 680.761 389.627C681.566 390.786 681.862 392.848 681.65 395.813C681.544 398.647 681.072 402.679 680.234 407.91C679.174 414.634 678.007 420.814 676.735 426.451C675.569 431.955 674.376 437.155 673.157 442.051C672.055 446.936 670.942 451.699 669.818 456.341C668.8 460.85 667.91 465.471 667.146 470.204C669.17 466.467 671.761 462.497 674.919 458.293C678.067 453.967 681.744 450.332 685.95 447.388C690.39 444.423 694.125 442.81 697.155 442.547C700.885 442.223 703.682 443.331 705.546 445.871C707.4 448.289 708.422 451.271 708.612 454.816C708.739 457.629 708.267 460.311 707.197 462.86C706.232 465.277 704.966 467.597 703.398 469.821C701.819 471.923 700.102 473.791 698.248 475.426C696.393 477.06 694.809 478.426 693.495 479.523C695.211 480.356 696.726 481.575 698.04 483.181C699.46 484.654 700.217 486.615 700.312 489.063C700.481 492.364 700.094 495.345 699.151 498.005C698.313 500.534 697.984 502.835 698.164 504.907C698.418 506.481 698.81 507.614 699.34 508.305C699.986 508.986 701.183 509.25 702.932 509.098C706.078 508.825 709.22 507.14 712.357 504.044C715.61 500.937 718.593 497.423 721.306 493.504C724.018 489.584 726.504 485.745 728.761 481.988C731.007 478.109 732.756 475.255 734.006 473.427C735.797 471.061 737.381 470.371 738.759 471.357C740.242 472.211 740.289 474.11 738.901 477.055Z" fill="#5951AE"/>
<path d="M807.114 469.477C804.083 475.143 800.575 480.729 796.59 486.232C792.595 491.614 788.267 496.534 783.604 500.991C779.048 505.317 774.253 508.926 769.22 511.819C764.303 514.702 759.398 516.355 754.503 516.78C751.938 517.003 749.083 516.575 745.936 515.497C742.917 514.531 740.067 512.814 737.387 510.345C734.707 507.876 732.424 504.574 730.538 500.439C728.77 496.294 727.912 491.149 727.966 485.004C727.998 479.966 729 474.599 730.972 468.901C733.049 463.072 735.693 457.684 738.904 452.739C742.232 447.784 746.036 443.585 750.317 440.143C754.714 436.691 759.244 434.763 763.906 434.358C768.335 433.974 771.64 434.854 773.823 436.998C776.005 439.142 777.128 441.93 777.191 445.363C777.169 449.172 776.422 452.737 774.948 456.058C773.592 459.369 771.859 462.405 769.75 465.167C767.642 467.929 765.337 470.463 762.836 472.767C760.452 475.062 758.168 477.164 755.985 479.072C753.58 481.123 751.286 483.103 749.103 485.012C746.91 486.799 744.997 488.439 743.365 489.931C743.746 492.968 744.493 495.482 745.605 497.473C746.717 499.465 748.031 501.07 749.546 502.289C751.05 503.387 752.703 504.164 754.504 504.622C756.411 504.948 758.297 505.03 760.162 504.868C764.125 504.524 768.151 502.885 772.241 499.951C776.321 496.895 780.241 493.362 784.003 489.351C787.871 485.209 791.378 480.974 794.526 476.648C797.79 472.312 800.46 468.581 802.537 465.453C803.268 464.407 804.036 463.788 804.842 463.595C805.753 463.27 806.463 463.332 806.971 463.779C807.586 464.094 807.941 464.8 808.036 465.897C808.121 466.872 807.813 468.065 807.114 469.477ZM759.915 445.205C758.517 445.326 756.89 446.204 755.036 447.839C753.298 449.463 751.618 451.758 749.997 454.724C748.365 457.567 746.908 461.071 745.625 465.235C744.332 469.277 743.5 473.893 743.128 479.083C744.432 477.865 745.851 476.636 747.388 475.398C748.914 474.037 750.434 472.616 751.95 471.133C756.612 466.676 759.802 462.838 761.519 459.618C763.235 456.399 764.115 453.682 764.158 451.468C764.19 449.132 763.814 447.507 763.03 446.592C762.236 445.556 761.197 445.094 759.915 445.205Z" fill="#5951AE"/>
<path d="M858.322 456.743C858.724 455.971 859.27 455.494 859.959 455.311C860.754 454.997 861.4 455.002 861.898 455.327C862.396 455.652 862.682 456.242 862.756 457.095C862.946 457.938 862.755 459.121 862.183 460.644C860.254 465.479 857.599 470.744 854.219 476.441C850.955 482.128 847.431 487.53 843.648 492.648C839.854 497.644 836.108 501.838 832.41 505.229C828.712 508.62 825.523 510.432 822.842 510.665C818.996 510.998 815.722 510.484 813.021 509.122C810.319 507.76 808.11 505.987 806.394 503.803C804.794 501.608 803.587 499.195 802.771 496.564C801.945 493.812 801.548 491.267 801.58 488.931C801.528 486.971 801.634 483.461 801.9 478.403C802.155 473.223 802.579 467.291 803.173 460.608C803.757 453.803 804.42 446.561 805.163 438.883C806.011 431.072 806.945 423.561 807.963 416.35C806.003 416.766 804.043 417.182 802.082 417.598C800.122 418.013 798.326 418.292 796.695 418.434C792.965 418.757 789.432 418.634 786.094 418.064C782.63 417.382 780.045 416.686 778.339 415.974C777.364 415.567 776.898 414.932 776.941 414.069C776.972 413.084 777.243 412.139 777.751 411.236C778.25 410.21 778.938 409.352 779.818 408.661C780.57 407.859 781.296 407.428 781.995 407.367C784.231 407.419 786.641 407.455 789.226 407.476C791.801 407.376 794.598 407.133 797.618 406.748C799.822 406.434 801.904 406.069 803.864 405.653C805.941 405.227 807.954 404.746 809.903 404.208C810.911 398.226 811.928 393.041 812.957 388.654C814.091 384.134 815.167 380.97 816.184 379.163C816.481 378.523 817.196 377.97 818.33 377.503C819.57 376.904 820.884 376.483 822.272 376.24C823.649 375.875 824.989 375.758 826.292 375.891C827.585 375.901 828.554 376.247 829.201 376.928C829.868 377.852 830.318 380.331 830.551 384.363C830.783 388.396 830.586 393.571 829.961 399.888C834.856 399.463 839.194 399.394 842.977 399.68C846.865 399.833 850.181 400.16 852.925 400.658C855.659 401.035 857.873 401.518 859.568 402.108C861.253 402.576 862.514 402.896 863.351 403.069C864.188 403.242 864.649 403.816 864.733 404.791C864.934 405.756 864.85 406.808 864.479 407.945C864.214 408.95 863.647 409.859 862.778 410.672C861.909 411.484 860.881 411.819 859.694 411.676C858.518 411.655 857.157 411.528 855.61 411.294C854.18 411.049 852.405 410.896 850.286 410.835C848.283 410.763 845.873 410.727 843.055 410.726C840.236 410.725 836.963 410.886 833.233 411.21C832.534 411.27 831.723 411.402 830.801 411.605C829.986 411.676 829.111 411.752 828.179 411.832C827.882 413.823 827.585 415.814 827.288 417.805C827.097 419.663 826.742 421.659 826.223 423.792C825.131 428.799 823.843 434.253 822.359 440.154C821.044 445.303 819.443 451.214 817.557 457.886C815.67 464.559 813.529 471.683 811.133 479.26C810.889 484.562 811.296 488.579 812.355 491.311C813.521 493.912 814.797 495.766 816.185 496.874C817.816 498.083 819.745 498.653 821.97 498.582C823.739 498.674 825.784 497.883 828.104 496.208C830.531 494.401 832.974 492.101 835.432 489.309C837.89 486.516 840.328 483.48 842.744 480.2C845.276 476.91 847.581 473.701 849.658 470.574C851.735 467.446 853.548 464.648 855.095 462.181C856.631 459.591 857.707 457.779 858.322 456.743Z" fill="#5951AE"/>
</svg>
